<svg width="341" height="162" viewBox="0 0 341 162" fill="none" xmlns="http://www.w3.org/2000/svg">
<g filter="url(#filter0_di_400_4758)">
<path d="M103.471 41.3485C98.1095 33.0363 104.077 22.0864 113.968 22.0864H243.157C247.248 22.0864 251.079 24.0896 253.414 27.4489L322.866 127.38C328.622 135.662 322.695 147 312.609 147H178.424C174.18 147 170.226 144.845 167.926 141.279L103.471 41.3485Z" fill="#0C0B0B"/>
</g>
<g filter="url(#filter1_i_400_4758)">
<path d="M240.272 103.281C238.184 100.282 240.329 96.173 243.984 96.173H283.923C285.346 96.173 286.686 96.8427 287.54 97.9809L308.585 126.022C310.823 129.003 308.696 133.259 304.968 133.259H263.515C262.035 133.259 260.649 132.536 259.803 131.322L240.272 103.281Z" fill="#979696"/>
</g>
<g filter="url(#filter2_d_400_4758)">
<path d="M158.479 35.6862C153.513 34.3947 154.448 27.083 159.579 27.083H191.079C191.424 27.083 191.769 27.124 192.105 27.205C197.137 28.4197 196.256 35.827 191.079 35.827H159.579C159.208 35.827 158.838 35.7797 158.479 35.6862Z" fill="#0C0B0B"/>
</g>
<g filter="url(#filter3_i_400_4758)">
<path d="M177.237 32.0795C177.237 -10.391 63.6142 -38.8511 48 -4.49988C32.3858 29.8513 96.455 82.3772 31.5 85.5C-33.455 88.6229 -30.128 43.3217 -34.5 32.0795" stroke="#191919" stroke-width="24.9827"/>
</g>
<path d="M245.925 102.676C244.956 101.541 245.763 99.7913 247.255 99.7913H250.295C250.784 99.7913 251.251 99.9962 251.583 100.356L252.525 101.381C253.556 102.502 252.76 104.314 251.237 104.314H248.13C247.618 104.314 247.131 104.09 246.799 103.7L245.925 102.676Z" fill="#0C0B0B"/>
<path d="M250.448 109.008C249.479 107.872 250.285 106.123 251.778 106.123H254.818C255.307 106.123 255.774 106.328 256.105 106.688L257.047 107.712C258.078 108.834 257.283 110.646 255.76 110.646H252.652C252.14 110.646 251.654 110.421 251.322 110.032L250.448 109.008Z" fill="#0C0B0B"/>
<path d="M254.97 115.34C254.001 114.204 254.808 112.455 256.301 112.455H259.34C259.83 112.455 260.297 112.66 260.628 113.02L261.57 114.044C262.601 115.166 261.806 116.978 260.282 116.978H257.175C256.663 116.978 256.177 116.753 255.844 116.364L254.97 115.34Z" fill="#0C0B0B"/>
<path d="M259.493 121.672C258.524 120.536 259.331 118.787 260.824 118.787H263.863C264.353 118.787 264.82 118.992 265.151 119.352L266.093 120.376C267.124 121.497 266.329 123.309 264.805 123.309H261.698C261.186 123.309 260.7 123.085 260.367 122.696L259.493 121.672Z" fill="#0C0B0B"/>
<path d="M254.97 102.676C254.001 101.541 254.808 99.7913 256.301 99.7913H259.34C259.83 99.7913 260.297 99.9962 260.628 100.356L261.57 101.381C262.601 102.502 261.806 104.314 260.282 104.314H257.175C256.663 104.314 256.177 104.09 255.844 103.7L254.97 102.676Z" fill="#0C0B0B"/>
<path d="M264.016 115.34C263.047 114.204 263.854 112.455 265.346 112.455H268.386C268.875 112.455 269.342 112.66 269.673 113.02L270.615 114.044C271.647 115.166 270.851 116.978 269.328 116.978H266.22C265.708 116.978 265.222 116.753 264.89 116.364L264.016 115.34Z" fill="#0C0B0B"/>
<path d="M268.538 121.672C267.569 120.536 268.376 118.787 269.869 118.787H272.909C273.398 118.787 273.865 118.992 274.196 119.352L275.138 120.376C276.169 121.497 275.374 123.309 273.85 123.309H270.743C270.231 123.309 269.745 123.085 269.413 122.696L268.538 121.672Z" fill="#0C0B0B"/>
<path d="M273.061 128.003C272.092 126.868 272.899 125.119 274.392 125.119H277.432C277.921 125.119 278.388 125.324 278.719 125.684L279.661 126.708C280.692 127.829 279.897 129.641 278.373 129.641H275.266C274.754 129.641 274.268 129.417 273.935 129.028L273.061 128.003Z" fill="#0C0B0B"/>
<path d="M264.016 102.676C263.047 101.541 263.854 99.7913 265.346 99.7913H268.386C268.875 99.7913 269.342 99.9962 269.673 100.356L270.615 101.381C271.647 102.502 270.851 104.314 269.328 104.314H266.22C265.708 104.314 265.222 104.09 264.89 103.7L264.016 102.676Z" fill="#0C0B0B"/>
<path d="M268.538 109.008C267.569 107.872 268.376 106.123 269.869 106.123H272.909C273.398 106.123 273.865 106.328 274.196 106.688L275.138 107.712C276.169 108.834 275.374 110.646 273.85 110.646H270.743C270.231 110.646 269.745 110.421 269.413 110.032L268.538 109.008Z" fill="#0C0B0B"/>
<path d="M277.584 121.672C276.615 120.536 277.422 118.787 278.915 118.787H281.954C282.444 118.787 282.911 118.992 283.242 119.352L284.184 120.376C285.215 121.497 284.419 123.309 282.896 123.309H279.789C279.277 123.309 278.791 123.085 278.458 122.696L277.584 121.672Z" fill="#0C0B0B"/>
<path d="M276.679 109.008C275.71 107.872 276.517 106.123 278.01 106.123H281.049C281.539 106.123 282.006 106.328 282.337 106.688L283.279 107.712C284.31 108.834 283.515 110.646 281.991 110.646H278.884C278.372 110.646 277.886 110.421 277.553 110.032L276.679 109.008Z" fill="#0C0B0B"/>
<path d="M281.202 115.34C280.233 114.204 281.04 112.455 282.533 112.455H285.572C286.062 112.455 286.529 112.66 286.86 113.02L287.802 114.044C288.833 115.166 288.037 116.978 286.514 116.978H283.407C282.895 116.978 282.408 116.753 282.076 116.364L281.202 115.34Z" fill="#0C0B0B"/>
<path d="M290.247 128.003C289.278 126.868 290.085 125.119 291.578 125.119H294.618C295.107 125.119 295.574 125.324 295.905 125.684L296.847 126.708C297.878 127.829 297.083 129.641 295.559 129.641H292.452C291.94 129.641 291.454 129.417 291.122 129.028L290.247 128.003Z" fill="#0C0B0B"/>
<path d="M280.297 102.676C279.328 101.541 280.135 99.7913 281.628 99.7913H284.668C285.157 99.7913 285.624 99.9962 285.955 100.356L286.897 101.381C287.928 102.502 287.133 104.314 285.61 104.314H282.502C281.99 104.314 281.504 104.09 281.172 103.7L280.297 102.676Z" fill="#0C0B0B"/>
<path d="M284.82 109.008C283.851 107.872 284.658 106.123 286.151 106.123H289.191C289.68 106.123 290.147 106.328 290.478 106.688L291.42 107.712C292.451 108.834 291.656 110.646 290.132 110.646H287.025C286.513 110.646 286.027 110.421 285.695 110.032L284.82 109.008Z" fill="#0C0B0B"/>
<path d="M289.343 115.34C288.374 114.204 289.181 112.455 290.674 112.455H293.713C294.203 112.455 294.67 112.66 295.001 113.02L295.943 114.044C296.974 115.166 296.179 116.978 294.655 116.978H291.548C291.036 116.978 290.55 116.753 290.217 116.364L289.343 115.34Z" fill="#0C0B0B"/>
<path d="M293.866 121.672C292.897 120.536 293.704 118.787 295.196 118.787H298.236C298.725 118.787 299.192 118.992 299.524 119.352L300.465 120.376C301.497 121.497 300.701 123.309 299.178 123.309H296.07C295.559 123.309 295.072 123.085 294.74 122.696L293.866 121.672Z" fill="#0C0B0B"/>
<path d="M298.389 128.003C297.42 126.868 298.227 125.119 299.719 125.119H302.759C303.248 125.119 303.715 125.324 304.047 125.684L304.988 126.708C306.02 127.829 305.224 129.641 303.701 129.641H300.593C300.081 129.641 299.595 129.417 299.263 129.028L298.389 128.003Z" fill="#0C0B0B"/>
<defs>
<filter id="filter0_di_400_4758" x="86.4667" y="7.0968" width="253.645" height="154.893" filterUnits="userSpaceOnUse" color-interpolation-filters="sRGB">
<feFlood flood-opacity="0" result="BackgroundImageFix"/>
<feColorMatrix in="SourceAlpha" type="matrix" values="0 0 0 0 0 0 0 0 0 0 0 0 0 0 0 0 0 0 127 0" result="hardAlpha"/>
<feOffset/>
<feGaussianBlur stdDeviation="7.49481"/>
<feComposite in2="hardAlpha" operator="out"/>
<feColorMatrix type="matrix" values="0 0 0 0 0.14902 0 0 0 0 0.776471 0 0 0 0 0.854902 0 0 0 0.6 0"/>
<feBlend mode="normal" in2="BackgroundImageFix" result="effect1_dropShadow_400_4758"/>
<feBlend mode="normal" in="SourceGraphic" in2="effect1_dropShadow_400_4758" result="shape"/>
<feColorMatrix in="SourceAlpha" type="matrix" values="0 0 0 0 0 0 0 0 0 0 0 0 0 0 0 0 0 0 127 0" result="hardAlpha"/>
<feOffset dx="5"/>
<feGaussianBlur stdDeviation="4.99654"/>
<feComposite in2="hardAlpha" operator="arithmetic" k2="-1" k3="1"/>
<feColorMatrix type="matrix" values="0 0 0 0 0.14902 0 0 0 0 0.776471 0 0 0 0 0.854902 0 0 0 0.25 0"/>
<feBlend mode="normal" in2="shape" result="effect2_innerShadow_400_4758"/>
</filter>
<filter id="filter1_i_400_4758" x="239.453" y="96.173" width="70.0459" height="40.7046" filterUnits="userSpaceOnUse" color-interpolation-filters="sRGB">
<feFlood flood-opacity="0" result="BackgroundImageFix"/>
<feBlend mode="normal" in="SourceGraphic" in2="BackgroundImageFix" result="shape"/>
<feColorMatrix in="SourceAlpha" type="matrix" values="0 0 0 0 0 0 0 0 0 0 0 0 0 0 0 0 0 0 127 0" result="hardAlpha"/>
<feOffset dy="3.61818"/>
<feGaussianBlur stdDeviation="3.61818"/>
<feComposite in2="hardAlpha" operator="arithmetic" k2="-1" k3="1"/>
<feColorMatrix type="matrix" values="0 0 0 0 0.14902 0 0 0 0 0.776471 0 0 0 0 0.854902 0 0 0 0.25 0"/>
<feBlend mode="normal" in2="shape" result="effect1_innerShadow_400_4758"/>
</filter>
<filter id="filter2_d_400_4758" x="150.208" y="23.3356" width="50.2423" height="18.737" filterUnits="userSpaceOnUse" color-interpolation-filters="sRGB">
<feFlood flood-opacity="0" result="BackgroundImageFix"/>
<feColorMatrix in="SourceAlpha" type="matrix" values="0 0 0 0 0 0 0 0 0 0 0 0 0 0 0 0 0 0 127 0" result="hardAlpha"/>
<feOffset dy="1.24914"/>
<feGaussianBlur stdDeviation="2.49827"/>
<feComposite in2="hardAlpha" operator="out"/>
<feColorMatrix type="matrix" values="0 0 0 0 0.14902 0 0 0 0 0.776471 0 0 0 0 0.854902 0 0 0 0.25 0"/>
<feBlend mode="normal" in2="BackgroundImageFix" result="effect1_dropShadow_400_4758"/>
<feBlend mode="normal" in="SourceGraphic" in2="effect1_dropShadow_400_4758" result="shape"/>
</filter>
<filter id="filter3_i_400_4758" x="-46.1423" y="-32.2833" width="235.871" height="135.425" filterUnits="userSpaceOnUse" color-interpolation-filters="sRGB">
<feFlood flood-opacity="0" result="BackgroundImageFix"/>
<feBlend mode="normal" in="SourceGraphic" in2="BackgroundImageFix" result="shape"/>
<feColorMatrix in="SourceAlpha" type="matrix" values="0 0 0 0 0 0 0 0 0 0 0 0 0 0 0 0 0 0 127 0" result="hardAlpha"/>
<feOffset dy="4.99654"/>
<feGaussianBlur stdDeviation="7.49481"/>
<feComposite in2="hardAlpha" operator="arithmetic" k2="-1" k3="1"/>
<feColorMatrix type="matrix" values="0 0 0 0 0.14902 0 0 0 0 0.776471 0 0 0 0 0.854902 0 0 0 0.5 0"/>
<feBlend mode="normal" in2="shape" result="effect1_innerShadow_400_4758"/>
</filter>
</defs>
</svg>
