<svg width="416" height="378" viewBox="0 0 416 378" fill="none" xmlns="http://www.w3.org/2000/svg">
<circle cx="208" cy="186" r="185.5" fill="#0C0B0B" stroke="#494949" stroke-dasharray="8 8"/>
<circle cx="207.5" cy="185.5" r="118" fill="#0C0B0B" stroke="#494949" stroke-dasharray="8 8"/>
<g filter="url(#filter0_i_396_4538)">
<circle cx="207.5" cy="185.5" r="75.5" fill="#0C0B0B"/>
</g>
<circle cx="207.5" cy="185.5" r="75" stroke="#676666"/>
<g filter="url(#filter1_i_396_4538)">
<rect x="88.5" y="223.5" width="35" height="35" rx="17.5" fill="#0C0B0B"/>
<rect x="88.9375" y="223.938" width="34.125" height="34.125" rx="17.0625" stroke="#26C6DA" stroke-width="0.875"/>
<path fill-rule="evenodd" clip-rule="evenodd" d="M111.483 246.389C110.742 244.047 108.751 242.704 106.019 242.704H106C103.26 242.689 101.259 244.041 100.517 246.389L100.431 246.662L100.674 246.811C102.102 247.681 103.883 248.123 105.965 248.123C105.989 248.123 106.012 248.123 106.035 248.123C108.146 248.123 109.877 247.693 111.325 246.811L111.569 246.662L111.483 246.389Z" fill="white"/>
<path fill-rule="evenodd" clip-rule="evenodd" d="M106 241.079C107.985 241.079 109.601 239.464 109.601 237.479C109.601 235.493 107.985 233.877 106 233.877C104.014 233.877 102.399 235.493 102.399 237.479C102.399 239.464 104.014 241.079 106 241.079Z" fill="white"/>
</g>
<g filter="url(#filter2_i_396_4538)">
<rect x="303.5" y="175.5" width="35" height="35" rx="17.5" fill="#0C0B0B"/>
<rect x="303.938" y="175.938" width="34.125" height="34.125" rx="17.0625" stroke="#26C6DA" stroke-width="0.875"/>
<path fill-rule="evenodd" clip-rule="evenodd" d="M326.483 198.389C325.742 196.047 323.752 194.704 321.019 194.704H321C318.26 194.689 316.259 196.041 315.517 198.389L315.431 198.662L315.675 198.811C317.102 199.681 318.883 200.123 320.966 200.123C320.989 200.123 321.012 200.123 321.035 200.123C323.146 200.123 324.878 199.693 326.326 198.811L326.569 198.662L326.483 198.389Z" fill="white"/>
<path fill-rule="evenodd" clip-rule="evenodd" d="M321 193.079C322.986 193.079 324.602 191.464 324.602 189.479C324.602 187.493 322.986 185.877 321 185.877C319.015 185.877 317.4 187.493 317.4 189.479C317.4 191.464 319.015 193.079 321 193.079Z" fill="white"/>
</g>
<g filter="url(#filter3_i_396_4538)">
<rect x="350.5" y="263.5" width="35" height="35" rx="17.5" fill="#0C0B0B"/>
<rect x="350.938" y="263.938" width="34.125" height="34.125" rx="17.0625" stroke="#26C6DA" stroke-width="0.875"/>
<path fill-rule="evenodd" clip-rule="evenodd" d="M373.483 286.389C372.742 284.047 370.752 282.704 368.019 282.704H368C365.26 282.689 363.259 284.041 362.517 286.389L362.431 286.662L362.675 286.811C364.102 287.681 365.883 288.123 367.966 288.123C367.989 288.123 368.012 288.123 368.035 288.123C370.146 288.123 371.878 287.693 373.326 286.811L373.569 286.662L373.483 286.389Z" fill="white"/>
<path fill-rule="evenodd" clip-rule="evenodd" d="M368 281.079C369.986 281.079 371.602 279.464 371.602 277.479C371.602 275.493 369.986 273.877 368 273.877C366.015 273.877 364.4 275.493 364.4 277.479C364.4 279.464 366.015 281.079 368 281.079Z" fill="white"/>
</g>
<g filter="url(#filter4_i_396_4538)">
<rect x="14.5" y="122.5" width="35" height="35" rx="17.5" fill="#0C0B0B"/>
<rect x="14.9375" y="122.938" width="34.125" height="34.125" rx="17.0625" stroke="#26C6DA" stroke-width="0.875"/>
<path fill-rule="evenodd" clip-rule="evenodd" d="M37.4829 145.389C36.7421 143.047 34.7514 141.704 32.0192 141.704H31.9996C29.2601 141.689 27.2592 143.041 26.5169 145.389L26.4309 145.662L26.6744 145.811C28.1022 146.681 29.8828 147.123 31.9653 147.123C31.9886 147.123 32.0119 147.123 32.0346 147.123C34.1462 147.123 35.8773 146.693 37.3254 145.811L37.5689 145.662L37.4829 145.389Z" fill="white"/>
<path fill-rule="evenodd" clip-rule="evenodd" d="M31.9999 140.079C33.9855 140.079 35.6013 138.464 35.6013 136.479C35.6013 134.493 33.9855 132.877 31.9999 132.877C30.0144 132.877 28.3993 134.493 28.3993 136.479C28.3993 138.464 30.0144 140.079 31.9999 140.079Z" fill="white"/>
</g>
<g filter="url(#filter5_d_396_4538)">
<circle cx="25.5" cy="223.5" r="7.425" fill="#1C1B1B" stroke="url(#paint0_linear_396_4538)" stroke-width="0.15"/>
<circle cx="25.5337" cy="223.534" r="5.45065" fill="url(#paint1_radial_396_4538)"/>
</g>
<g filter="url(#filter8_d_396_4538)">
<circle cx="94.5" cy="150.5" r="7.425" fill="#1C1B1B" stroke="url(#paint2_linear_396_4538)" stroke-width="0.15"/>
<circle cx="94.5337" cy="150.534" r="5.45065" fill="url(#paint3_radial_396_4538)"/>
</g>
<g filter="url(#filter11_d_396_4538)">
<circle cx="223.5" cy="303.5" r="7.425" fill="#1C1B1B" stroke="url(#paint4_linear_396_4538)" stroke-width="0.15"/>
<circle cx="223.534" cy="303.534" r="5.45065" fill="url(#paint5_radial_396_4538)"/>
</g>
<g filter="url(#filter14_d_396_4538)">
<circle cx="94.5" cy="335.5" r="7.425" fill="#1C1B1B" stroke="url(#paint6_linear_396_4538)" stroke-width="0.15"/>
<circle cx="94.5337" cy="335.534" r="5.45065" fill="url(#paint7_radial_396_4538)"/>
</g>
<g filter="url(#filter17_d_396_4538)">
<circle cx="393.5" cy="174.5" r="7.425" fill="#1C1B1B" stroke="url(#paint8_linear_396_4538)" stroke-width="0.15"/>
<circle cx="393.534" cy="174.534" r="5.45065" fill="url(#paint9_radial_396_4538)"/>
</g>
<g filter="url(#filter20_d_396_4538)">
<circle cx="328.5" cy="329.5" r="7.425" fill="#1C1B1B" stroke="url(#paint10_linear_396_4538)" stroke-width="0.15"/>
<circle cx="328.534" cy="329.534" r="5.45065" fill="url(#paint11_radial_396_4538)"/>
</g>
<g filter="url(#filter23_f_396_4538)">
<circle cx="156.5" cy="185.5" r="73.5" fill="#26C6DA" fill-opacity="0.05"/>
</g>
<g filter="url(#filter24_i_396_4538)">
<rect x="169" y="147" width="78" height="78" rx="39" fill="#141313" fill-opacity="0.4"/>
<path d="M223.178 197.806C225.041 197.806 226.552 199.316 226.552 201.179V204.552H223.178C221.316 204.552 219.805 203.042 219.805 201.179V197.806H223.178ZM216.432 194.433V197.806C216.432 199.669 214.922 201.179 213.059 201.179H199.567C197.705 201.179 196.194 199.669 196.194 197.806V194.433H216.432ZM196.194 194.433H192.821C190.958 194.433 189.448 192.922 189.448 191.059V177.568C189.448 175.705 190.958 174.194 192.821 174.194H196.194V194.433ZM219.806 174.194C221.669 174.194 223.179 175.705 223.179 177.568V191.059C223.179 192.922 221.669 194.433 219.806 194.433H216.433V174.194H219.806ZM213.059 167.448C214.922 167.448 216.432 168.958 216.432 170.821V174.194H196.194V170.821C196.194 168.958 197.704 167.448 199.567 167.448H213.059Z" fill="white"/>
</g>
<defs>
<filter id="filter0_i_396_4538" x="132" y="110" width="151" height="151" filterUnits="userSpaceOnUse" color-interpolation-filters="sRGB">
<feFlood flood-opacity="0" result="BackgroundImageFix"/>
<feBlend mode="normal" in="SourceGraphic" in2="BackgroundImageFix" result="shape"/>
<feColorMatrix in="SourceAlpha" type="matrix" values="0 0 0 0 0 0 0 0 0 0 0 0 0 0 0 0 0 0 127 0" result="hardAlpha"/>
<feOffset/>
<feGaussianBlur stdDeviation="6"/>
<feComposite in2="hardAlpha" operator="arithmetic" k2="-1" k3="1"/>
<feColorMatrix type="matrix" values="0 0 0 0 0.14902 0 0 0 0 0.776471 0 0 0 0 0.854902 0 0 0 0.2 0"/>
<feBlend mode="normal" in2="shape" result="effect1_innerShadow_396_4538"/>
</filter>
<filter id="filter1_i_396_4538" x="88.5" y="223.5" width="35" height="35" filterUnits="userSpaceOnUse" color-interpolation-filters="sRGB">
<feFlood flood-opacity="0" result="BackgroundImageFix"/>
<feBlend mode="normal" in="SourceGraphic" in2="BackgroundImageFix" result="shape"/>
<feColorMatrix in="SourceAlpha" type="matrix" values="0 0 0 0 0 0 0 0 0 0 0 0 0 0 0 0 0 0 127 0" result="hardAlpha"/>
<feOffset/>
<feGaussianBlur stdDeviation="3.5"/>
<feComposite in2="hardAlpha" operator="arithmetic" k2="-1" k3="1"/>
<feColorMatrix type="matrix" values="0 0 0 0 0.14902 0 0 0 0 0.776471 0 0 0 0 0.854902 0 0 0 0.5 0"/>
<feBlend mode="normal" in2="shape" result="effect1_innerShadow_396_4538"/>
</filter>
<filter id="filter2_i_396_4538" x="303.5" y="175.5" width="35" height="35" filterUnits="userSpaceOnUse" color-interpolation-filters="sRGB">
<feFlood flood-opacity="0" result="BackgroundImageFix"/>
<feBlend mode="normal" in="SourceGraphic" in2="BackgroundImageFix" result="shape"/>
<feColorMatrix in="SourceAlpha" type="matrix" values="0 0 0 0 0 0 0 0 0 0 0 0 0 0 0 0 0 0 127 0" result="hardAlpha"/>
<feOffset/>
<feGaussianBlur stdDeviation="3.5"/>
<feComposite in2="hardAlpha" operator="arithmetic" k2="-1" k3="1"/>
<feColorMatrix type="matrix" values="0 0 0 0 0.14902 0 0 0 0 0.776471 0 0 0 0 0.854902 0 0 0 0.5 0"/>
<feBlend mode="normal" in2="shape" result="effect1_innerShadow_396_4538"/>
</filter>
<filter id="filter3_i_396_4538" x="350.5" y="263.5" width="35" height="35" filterUnits="userSpaceOnUse" color-interpolation-filters="sRGB">
<feFlood flood-opacity="0" result="BackgroundImageFix"/>
<feBlend mode="normal" in="SourceGraphic" in2="BackgroundImageFix" result="shape"/>
<feColorMatrix in="SourceAlpha" type="matrix" values="0 0 0 0 0 0 0 0 0 0 0 0 0 0 0 0 0 0 127 0" result="hardAlpha"/>
<feOffset/>
<feGaussianBlur stdDeviation="3.5"/>
<feComposite in2="hardAlpha" operator="arithmetic" k2="-1" k3="1"/>
<feColorMatrix type="matrix" values="0 0 0 0 0.14902 0 0 0 0 0.776471 0 0 0 0 0.854902 0 0 0 0.5 0"/>
<feBlend mode="normal" in2="shape" result="effect1_innerShadow_396_4538"/>
</filter>
<filter id="filter4_i_396_4538" x="14.5" y="122.5" width="35" height="35" filterUnits="userSpaceOnUse" color-interpolation-filters="sRGB">
<feFlood flood-opacity="0" result="BackgroundImageFix"/>
<feBlend mode="normal" in="SourceGraphic" in2="BackgroundImageFix" result="shape"/>
<feColorMatrix in="SourceAlpha" type="matrix" values="0 0 0 0 0 0 0 0 0 0 0 0 0 0 0 0 0 0 127 0" result="hardAlpha"/>
<feOffset/>
<feGaussianBlur stdDeviation="3.5"/>
<feComposite in2="hardAlpha" operator="arithmetic" k2="-1" k3="1"/>
<feColorMatrix type="matrix" values="0 0 0 0 0.14902 0 0 0 0 0.776471 0 0 0 0 0.854902 0 0 0 0.5 0"/>
<feBlend mode="normal" in2="shape" result="effect1_innerShadow_396_4538"/>
</filter>
<filter id="filter5_d_396_4538" x="15.2973" y="213.297" width="20.4054" height="20.4054" filterUnits="userSpaceOnUse" color-interpolation-filters="sRGB">
<feFlood flood-opacity="0" result="BackgroundImageFix"/>
<feColorMatrix in="SourceAlpha" type="matrix" values="0 0 0 0 0 0 0 0 0 0 0 0 0 0 0 0 0 0 127 0" result="hardAlpha"/>
<feOffset/>
<feGaussianBlur stdDeviation="1.35135"/>
<feComposite in2="hardAlpha" operator="out"/>
<feColorMatrix type="matrix" values="0 0 0 0 0.14902 0 0 0 0 0.776471 0 0 0 0 0.854902 0 0 0 0.5 0"/>
<feBlend mode="normal" in2="BackgroundImageFix" result="effect1_dropShadow_396_4538"/>
<feBlend mode="normal" in="SourceGraphic" in2="effect1_dropShadow_396_4538" result="shape"/>
</filter>
<filter id="filter8_d_396_4538" x="84.2973" y="140.297" width="20.4054" height="20.4054" filterUnits="userSpaceOnUse" color-interpolation-filters="sRGB">
<feFlood flood-opacity="0" result="BackgroundImageFix"/>
<feColorMatrix in="SourceAlpha" type="matrix" values="0 0 0 0 0 0 0 0 0 0 0 0 0 0 0 0 0 0 127 0" result="hardAlpha"/>
<feOffset/>
<feGaussianBlur stdDeviation="1.35135"/>
<feComposite in2="hardAlpha" operator="out"/>
<feColorMatrix type="matrix" values="0 0 0 0 0.14902 0 0 0 0 0.776471 0 0 0 0 0.854902 0 0 0 0.5 0"/>
<feBlend mode="normal" in2="BackgroundImageFix" result="effect1_dropShadow_396_4538"/>
<feBlend mode="normal" in="SourceGraphic" in2="effect1_dropShadow_396_4538" result="shape"/>
</filter>
<filter id="filter11_d_396_4538" x="213.297" y="293.297" width="20.4054" height="20.4054" filterUnits="userSpaceOnUse" color-interpolation-filters="sRGB">
<feFlood flood-opacity="0" result="BackgroundImageFix"/>
<feColorMatrix in="SourceAlpha" type="matrix" values="0 0 0 0 0 0 0 0 0 0 0 0 0 0 0 0 0 0 127 0" result="hardAlpha"/>
<feOffset/>
<feGaussianBlur stdDeviation="1.35135"/>
<feComposite in2="hardAlpha" operator="out"/>
<feColorMatrix type="matrix" values="0 0 0 0 0.14902 0 0 0 0 0.776471 0 0 0 0 0.854902 0 0 0 0.5 0"/>
<feBlend mode="normal" in2="BackgroundImageFix" result="effect1_dropShadow_396_4538"/>
<feBlend mode="normal" in="SourceGraphic" in2="effect1_dropShadow_396_4538" result="shape"/>
</filter>
<filter id="filter14_d_396_4538" x="84.2973" y="325.297" width="20.4054" height="20.4054" filterUnits="userSpaceOnUse" color-interpolation-filters="sRGB">
<feFlood flood-opacity="0" result="BackgroundImageFix"/>
<feColorMatrix in="SourceAlpha" type="matrix" values="0 0 0 0 0 0 0 0 0 0 0 0 0 0 0 0 0 0 127 0" result="hardAlpha"/>
<feOffset/>
<feGaussianBlur stdDeviation="1.35135"/>
<feComposite in2="hardAlpha" operator="out"/>
<feColorMatrix type="matrix" values="0 0 0 0 0.14902 0 0 0 0 0.776471 0 0 0 0 0.854902 0 0 0 0.5 0"/>
<feBlend mode="normal" in2="BackgroundImageFix" result="effect1_dropShadow_396_4538"/>
<feBlend mode="normal" in="SourceGraphic" in2="effect1_dropShadow_396_4538" result="shape"/>
</filter>
<filter id="filter17_d_396_4538" x="383.297" y="164.297" width="20.4054" height="20.4054" filterUnits="userSpaceOnUse" color-interpolation-filters="sRGB">
<feFlood flood-opacity="0" result="BackgroundImageFix"/>
<feColorMatrix in="SourceAlpha" type="matrix" values="0 0 0 0 0 0 0 0 0 0 0 0 0 0 0 0 0 0 127 0" result="hardAlpha"/>
<feOffset/>
<feGaussianBlur stdDeviation="1.35135"/>
<feComposite in2="hardAlpha" operator="out"/>
<feColorMatrix type="matrix" values="0 0 0 0 0.14902 0 0 0 0 0.776471 0 0 0 0 0.854902 0 0 0 0.5 0"/>
<feBlend mode="normal" in2="BackgroundImageFix" result="effect1_dropShadow_396_4538"/>
<feBlend mode="normal" in="SourceGraphic" in2="effect1_dropShadow_396_4538" result="shape"/>
</filter>
<filter id="filter20_d_396_4538" x="318.297" y="319.297" width="20.4054" height="20.4054" filterUnits="userSpaceOnUse" color-interpolation-filters="sRGB">
<feFlood flood-opacity="0" result="BackgroundImageFix"/>
<feColorMatrix in="SourceAlpha" type="matrix" values="0 0 0 0 0 0 0 0 0 0 0 0 0 0 0 0 0 0 127 0" result="hardAlpha"/>
<feOffset/>
<feGaussianBlur stdDeviation="1.35135"/>
<feComposite in2="hardAlpha" operator="out"/>
<feColorMatrix type="matrix" values="0 0 0 0 0.14902 0 0 0 0 0.776471 0 0 0 0 0.854902 0 0 0 0.5 0"/>
<feBlend mode="normal" in2="BackgroundImageFix" result="effect1_dropShadow_396_4538"/>
<feBlend mode="normal" in="SourceGraphic" in2="effect1_dropShadow_396_4538" result="shape"/>
</filter>
<filter id="filter23_f_396_4538" x="37.7692" y="66.7692" width="237.462" height="237.462" filterUnits="userSpaceOnUse" color-interpolation-filters="sRGB">
<feFlood flood-opacity="0" result="BackgroundImageFix"/>
<feBlend mode="normal" in="SourceGraphic" in2="BackgroundImageFix" result="shape"/>
<feGaussianBlur stdDeviation="22.6154" result="effect1_foregroundBlur_396_4538"/>
</filter>
<filter id="filter24_i_396_4538" x="169" y="147" width="78" height="78" filterUnits="userSpaceOnUse" color-interpolation-filters="sRGB">
<feFlood flood-opacity="0" result="BackgroundImageFix"/>
<feBlend mode="normal" in="SourceGraphic" in2="BackgroundImageFix" result="shape"/>
<feColorMatrix in="SourceAlpha" type="matrix" values="0 0 0 0 0 0 0 0 0 0 0 0 0 0 0 0 0 0 127 0" result="hardAlpha"/>
<feOffset/>
<feGaussianBlur stdDeviation="5.31818"/>
<feComposite in2="hardAlpha" operator="arithmetic" k2="-1" k3="1"/>
<feColorMatrix type="matrix" values="0 0 0 0 0.14902 0 0 0 0 0.776471 0 0 0 0 0.854902 0 0 0 0.25 0"/>
<feBlend mode="normal" in2="shape" result="effect1_innerShadow_396_4538"/>
</filter>
<linearGradient id="paint0_linear_396_4538" x1="35.5521" y1="214.49" x2="25.5" y2="231" gradientUnits="userSpaceOnUse">
<stop stop-color="#26C6DA"/>
<stop offset="1" stop-color="#1C1B1B"/>
</linearGradient>
<radialGradient id="paint1_radial_396_4538" cx="0" cy="0" r="1" gradientUnits="userSpaceOnUse" gradientTransform="translate(25.5337 223.534) rotate(90) scale(5.45065)">
<stop offset="0.746022" stop-color="#05C7E1"/>
<stop offset="1" stop-color="#002227"/>
</radialGradient>
<linearGradient id="paint2_linear_396_4538" x1="104.552" y1="141.49" x2="94.5" y2="158" gradientUnits="userSpaceOnUse">
<stop stop-color="#26C6DA"/>
<stop offset="1" stop-color="#1C1B1B"/>
</linearGradient>
<radialGradient id="paint3_radial_396_4538" cx="0" cy="0" r="1" gradientUnits="userSpaceOnUse" gradientTransform="translate(94.5337 150.534) rotate(90) scale(5.45065)">
<stop offset="0.746022" stop-color="#05C7E1"/>
<stop offset="1" stop-color="#002227"/>
</radialGradient>
<linearGradient id="paint4_linear_396_4538" x1="233.552" y1="294.49" x2="223.5" y2="311" gradientUnits="userSpaceOnUse">
<stop stop-color="#26C6DA"/>
<stop offset="1" stop-color="#1C1B1B"/>
</linearGradient>
<radialGradient id="paint5_radial_396_4538" cx="0" cy="0" r="1" gradientUnits="userSpaceOnUse" gradientTransform="translate(223.534 303.534) rotate(90) scale(5.45065)">
<stop offset="0.746022" stop-color="#05C7E1"/>
<stop offset="1" stop-color="#002227"/>
</radialGradient>
<linearGradient id="paint6_linear_396_4538" x1="104.552" y1="326.49" x2="94.5" y2="343" gradientUnits="userSpaceOnUse">
<stop stop-color="#26C6DA"/>
<stop offset="1" stop-color="#1C1B1B"/>
</linearGradient>
<radialGradient id="paint7_radial_396_4538" cx="0" cy="0" r="1" gradientUnits="userSpaceOnUse" gradientTransform="translate(94.5337 335.534) rotate(90) scale(5.45065)">
<stop offset="0.746022" stop-color="#05C7E1"/>
<stop offset="1" stop-color="#002227"/>
</radialGradient>
<linearGradient id="paint8_linear_396_4538" x1="403.552" y1="165.49" x2="393.5" y2="182" gradientUnits="userSpaceOnUse">
<stop stop-color="#26C6DA"/>
<stop offset="1" stop-color="#1C1B1B"/>
</linearGradient>
<radialGradient id="paint9_radial_396_4538" cx="0" cy="0" r="1" gradientUnits="userSpaceOnUse" gradientTransform="translate(393.534 174.534) rotate(90) scale(5.45065)">
<stop offset="0.746022" stop-color="#05C7E1"/>
<stop offset="1" stop-color="#002227"/>
</radialGradient>
<linearGradient id="paint10_linear_396_4538" x1="338.552" y1="320.49" x2="328.5" y2="337" gradientUnits="userSpaceOnUse">
<stop stop-color="#26C6DA"/>
<stop offset="1" stop-color="#1C1B1B"/>
</linearGradient>
<radialGradient id="paint11_radial_396_4538" cx="0" cy="0" r="1" gradientUnits="userSpaceOnUse" gradientTransform="translate(328.534 329.534) rotate(90) scale(5.45065)">
<stop offset="0.746022" stop-color="#05C7E1"/>
<stop offset="1" stop-color="#002227"/>
</radialGradient>
</defs>
</svg>
