<svg width="208" height="143" viewBox="0 0 208 143" fill="none" xmlns="http://www.w3.org/2000/svg">
<g filter="url(#filter0_f_400_4782)">
<g filter="url(#filter1_di_400_4782)">
<path d="M168.899 61.1856C173.116 55.8021 169.701 47.8855 162.891 47.2594L73.9456 39.0815C71.129 38.8226 68.3641 39.9592 66.544 42.1242L12.4011 106.529C7.91354 111.868 11.2767 120.049 18.2213 120.687L110.607 129.181C113.528 129.45 116.387 128.217 118.196 125.907L168.899 61.1856Z" fill="#0C0B0B"/>
</g>
<g filter="url(#filter2_i_400_4782)">
<path d="M70.7915 95.1655C72.4192 93.2333 71.2022 90.2683 68.6863 90.037L41.1883 87.5088C40.2086 87.4187 39.2435 87.795 38.5834 88.5245L22.319 106.498C20.5897 108.409 21.7849 111.474 24.3513 111.71L52.8917 114.334C53.9104 114.428 54.9105 114.017 55.5695 113.235L70.7915 95.1655Z" fill="#979696"/>
</g>
<g filter="url(#filter3_d_400_4782)">
<path d="M131.385 53.8051C134.886 53.2303 134.705 48.1371 131.172 47.8122L109.485 45.8182C109.247 45.7964 109.007 45.8028 108.771 45.8373C105.229 46.355 105.367 51.5107 108.931 51.8384L130.619 53.8324C130.874 53.8559 131.132 53.8467 131.385 53.8051Z" fill="#0C0B0B"/>
</g>
<g filter="url(#filter4_i_400_4782)">
<path d="M118.698 50.1343C121.387 20.8938 189.278 -0.617435 197.854 24.0215C206.43 48.6604 182.747 78.2382 227.271 84.5C271.794 90.7618 250.568 87.4102 254.29 79.9468" stroke="#191919" stroke-width="17.2729"/>
</g>
<path d="M66.9382 94.3915C67.6773 93.6711 67.2325 92.4156 66.2048 92.3211L64.1115 92.1286C63.7746 92.0976 63.4401 92.2092 63.1893 92.4362L62.4757 93.0821C61.6948 93.7888 62.1277 95.0867 63.1765 95.1831L65.3164 95.3799C65.6689 95.4123 66.0179 95.2886 66.2713 95.0416L66.9382 94.3915Z" fill="#0C0B0B"/>
<path d="M63.4236 98.4647C64.1626 97.7443 63.7179 96.4888 62.6901 96.3943L60.5969 96.2019C60.26 96.1709 59.9255 96.2825 59.6746 96.5095L58.961 97.1553C58.1801 97.862 58.613 99.1599 59.6618 99.2564L61.8017 99.4531C62.1542 99.4855 62.5032 99.3619 62.7567 99.1148L63.4236 98.4647Z" fill="#0C0B0B"/>
<path d="M59.9089 102.538C60.648 101.817 60.2032 100.562 59.1755 100.467L57.0823 100.275C56.7453 100.244 56.4108 100.355 56.16 100.582L55.4464 101.228C54.6655 101.935 55.0984 103.233 56.1472 103.329L58.2871 103.526C58.6396 103.559 58.9886 103.435 59.242 103.188L59.9089 102.538Z" fill="#0C0B0B"/>
<path d="M56.3941 106.611C57.1331 105.891 56.6883 104.635 55.6606 104.541L53.5674 104.348C53.2304 104.317 52.8959 104.429 52.6451 104.656L51.9315 105.302C51.1506 106.008 51.5835 107.306 52.6323 107.403L54.7722 107.599C55.1247 107.632 55.4737 107.508 55.7271 107.261L56.3941 106.611Z" fill="#0C0B0B"/>
<path d="M60.7107 93.819C61.4497 93.0986 61.005 91.8431 59.9772 91.7486L57.884 91.5561C57.5471 91.5251 57.2126 91.6367 56.9617 91.8637L56.2481 92.5095C55.4672 93.2163 55.9001 94.5142 56.949 94.6106L59.0889 94.8074C59.4413 94.8398 59.7903 94.7161 60.0438 94.4691L60.7107 93.819Z" fill="#0C0B0B"/>
<path d="M53.6812 101.965C54.4202 101.245 53.9754 99.9893 52.9477 99.8948L50.8545 99.7024C50.5175 99.6714 50.1831 99.7829 49.9322 100.01L49.2186 100.656C48.4377 101.363 48.8706 102.66 49.9194 102.757L52.0593 102.954C52.4118 102.986 52.7608 102.862 53.0142 102.615L53.6812 101.965Z" fill="#0C0B0B"/>
<path d="M50.1668 106.038C50.9058 105.318 50.461 104.063 49.4333 103.968L47.3401 103.776C47.0031 103.745 46.6687 103.856 46.4178 104.083L45.7042 104.729C44.9233 105.436 45.3562 106.734 46.405 106.83L48.5449 107.027C48.8974 107.059 49.2464 106.936 49.4998 106.689L50.1668 106.038Z" fill="#0C0B0B"/>
<path d="M46.6516 110.111C47.3907 109.391 46.9459 108.136 45.9182 108.041L43.8249 107.849C43.488 107.818 43.1535 107.929 42.9027 108.156L42.1891 108.802C41.4081 109.509 41.8411 110.807 42.8899 110.903L45.0298 111.1C45.3823 111.132 45.7312 111.009 45.9847 110.762L46.6516 110.111Z" fill="#0C0B0B"/>
<path d="M54.4827 93.2463C55.2217 92.5259 54.7769 91.2704 53.7492 91.1759L51.656 90.9835C51.3191 90.9525 50.9846 91.0641 50.7337 91.2911L50.0201 91.9369C49.2392 92.6437 49.6721 93.9415 50.7209 94.038L52.8608 94.2347C53.2133 94.2671 53.5623 94.1435 53.8158 93.8964L54.4827 93.2463Z" fill="#0C0B0B"/>
<path d="M50.9683 97.3196C51.7073 96.5992 51.2625 95.3437 50.2348 95.2492L48.1416 95.0567C47.8047 95.0257 47.4702 95.1373 47.2193 95.3644L46.5057 96.0102C45.7248 96.7169 46.1577 98.0148 47.2065 98.1112L49.3464 98.308C49.6989 98.3404 50.0479 98.2167 50.3014 97.9697L50.9683 97.3196Z" fill="#0C0B0B"/>
<path d="M43.9387 105.466C44.6778 104.745 44.233 103.49 43.2053 103.395L41.112 103.203C40.7751 103.172 40.4406 103.284 40.1898 103.511L39.4762 104.156C38.6953 104.863 39.1282 106.161 40.177 106.257L42.3169 106.454C42.6694 106.487 43.0183 106.363 43.2718 106.116L43.9387 105.466Z" fill="#0C0B0B"/>
<path d="M45.3631 96.8042C46.1021 96.0838 45.6573 94.8283 44.6296 94.7338L42.5364 94.5413C42.1994 94.5104 41.8649 94.6219 41.6141 94.849L40.9005 95.4948C40.1196 96.2015 40.5525 97.4994 41.6013 97.5958L43.7412 97.7926C44.0937 97.825 44.4427 97.7014 44.6961 97.4543L45.3631 96.8042Z" fill="#0C0B0B"/>
<path d="M41.8486 100.877C42.5877 100.157 42.1429 98.9013 41.1152 98.8068L39.0219 98.6143C38.685 98.5834 38.3505 98.6949 38.0997 98.922L37.3861 99.5678C36.6052 100.275 37.0381 101.572 38.0869 101.669L40.2268 101.866C40.5793 101.898 40.9283 101.774 41.1817 101.527L41.8486 100.877Z" fill="#0C0B0B"/>
<path d="M34.8191 109.023C35.5581 108.303 35.1134 107.048 34.0856 106.953L31.9924 106.761C31.6555 106.73 31.321 106.841 31.0701 107.068L30.3565 107.714C29.5756 108.421 30.0085 109.719 31.0574 109.815L33.1973 110.012C33.5497 110.044 33.8987 109.921 34.1522 109.674L34.8191 109.023Z" fill="#0C0B0B"/>
<path d="M43.273 92.2156C44.012 91.4952 43.5672 90.2397 42.5395 90.1452L40.4463 89.9527C40.1093 89.9217 39.7749 90.0333 39.524 90.2603L38.8104 90.9062C38.0295 91.6129 38.4624 92.9108 39.5112 93.0072L41.6511 93.204C42.0036 93.2364 42.3526 93.1127 42.606 92.8657L43.273 92.2156Z" fill="#0C0B0B"/>
<path d="M39.7581 96.2888C40.4971 95.5684 40.0523 94.3129 39.0246 94.2184L36.9314 94.026C36.5945 93.995 36.26 94.1066 36.0091 94.3336L35.2955 94.9794C34.5146 95.6861 34.9475 96.984 35.9963 97.0805L38.1362 97.2772C38.4887 97.3096 38.8377 97.186 39.0912 96.9389L39.7581 96.2888Z" fill="#0C0B0B"/>
<path d="M36.2434 100.362C36.9825 99.6414 36.5377 98.3859 35.51 98.2914L33.4167 98.099C33.0798 98.068 32.7453 98.1796 32.4945 98.4066L31.7809 99.0524C30.9999 99.7591 31.4329 101.057 32.4817 101.153L34.6216 101.35C34.9741 101.383 35.323 101.259 35.5765 101.012L36.2434 100.362Z" fill="#0C0B0B"/>
<path d="M32.729 104.435C33.4681 103.715 33.0233 102.459 31.9955 102.365L29.9023 102.172C29.5654 102.141 29.2309 102.253 28.98 102.48L28.2665 103.126C27.4855 103.832 27.9185 105.13 28.9673 105.227L31.1072 105.423C31.4596 105.456 31.8086 105.332 32.0621 105.085L32.729 104.435Z" fill="#0C0B0B"/>
<path d="M29.2139 108.508C29.9529 107.788 29.5081 106.532 28.4804 106.438L26.3872 106.245C26.0503 106.214 25.7158 106.326 25.4649 106.553L24.7513 107.199C23.9704 107.905 24.4033 109.203 25.4521 109.3L27.592 109.496C27.9445 109.529 28.2935 109.405 28.547 109.158L29.2139 108.508Z" fill="#0C0B0B"/>
</g>
<defs>
<filter id="filter0_f_400_4782" x="6.36377" y="0.629517" width="262.432" height="132.588" filterUnits="userSpaceOnUse" color-interpolation-filters="sRGB">
<feFlood flood-opacity="0" result="BackgroundImageFix"/>
<feBlend mode="normal" in="SourceGraphic" in2="BackgroundImageFix" result="shape"/>
<feGaussianBlur stdDeviation="2" result="effect1_foregroundBlur_400_4782"/>
</filter>
<filter id="filter1_di_400_4782" x="8.58307e-06" y="28.6814" width="181.112" height="110.9" filterUnits="userSpaceOnUse" color-interpolation-filters="sRGB">
<feFlood flood-opacity="0" result="BackgroundImageFix"/>
<feColorMatrix in="SourceAlpha" type="matrix" values="0 0 0 0 0 0 0 0 0 0 0 0 0 0 0 0 0 0 127 0" result="hardAlpha"/>
<feOffset/>
<feGaussianBlur stdDeviation="5.18188"/>
<feComposite in2="hardAlpha" operator="out"/>
<feColorMatrix type="matrix" values="0 0 0 0 0.14902 0 0 0 0 0.776471 0 0 0 0 0.854902 0 0 0 0.6 0"/>
<feBlend mode="normal" in2="BackgroundImageFix" result="effect1_dropShadow_400_4782"/>
<feBlend mode="normal" in="SourceGraphic" in2="effect1_dropShadow_400_4782" result="shape"/>
<feColorMatrix in="SourceAlpha" type="matrix" values="0 0 0 0 0 0 0 0 0 0 0 0 0 0 0 0 0 0 127 0" result="hardAlpha"/>
<feOffset dy="3.45459"/>
<feGaussianBlur stdDeviation="3.45459"/>
<feComposite in2="hardAlpha" operator="arithmetic" k2="-1" k3="1"/>
<feColorMatrix type="matrix" values="0 0 0 0 0.14902 0 0 0 0 0.776471 0 0 0 0 0.854902 0 0 0 0.25 0"/>
<feBlend mode="normal" in2="shape" result="effect2_innerShadow_400_4782"/>
</filter>
<filter id="filter2_i_400_4782" x="21.5063" y="87.4956" width="50.0249" height="29.3535" filterUnits="userSpaceOnUse" color-interpolation-filters="sRGB">
<feFlood flood-opacity="0" result="BackgroundImageFix"/>
<feBlend mode="normal" in="SourceGraphic" in2="BackgroundImageFix" result="shape"/>
<feColorMatrix in="SourceAlpha" type="matrix" values="0 0 0 0 0 0 0 0 0 0 0 0 0 0 0 0 0 0 127 0" result="hardAlpha"/>
<feOffset dy="2.5016"/>
<feGaussianBlur stdDeviation="2.5016"/>
<feComposite in2="hardAlpha" operator="arithmetic" k2="-1" k3="1"/>
<feColorMatrix type="matrix" values="0 0 0 0 0.14902 0 0 0 0 0.776471 0 0 0 0 0.854902 0 0 0 0.25 0"/>
<feBlend mode="normal" in2="shape" result="effect1_innerShadow_400_4782"/>
</filter>
<filter id="filter3_d_400_4782" x="102.73" y="43.2146" width="34.6423" height="14.9487" filterUnits="userSpaceOnUse" color-interpolation-filters="sRGB">
<feFlood flood-opacity="0" result="BackgroundImageFix"/>
<feColorMatrix in="SourceAlpha" type="matrix" values="0 0 0 0 0 0 0 0 0 0 0 0 0 0 0 0 0 0 127 0" result="hardAlpha"/>
<feOffset dy="0.863647"/>
<feGaussianBlur stdDeviation="1.72729"/>
<feComposite in2="hardAlpha" operator="out"/>
<feColorMatrix type="matrix" values="0 0 0 0 0.14902 0 0 0 0 0.776471 0 0 0 0 0.854902 0 0 0 0.25 0"/>
<feBlend mode="normal" in2="BackgroundImageFix" result="effect1_dropShadow_400_4782"/>
<feBlend mode="normal" in="SourceGraphic" in2="effect1_dropShadow_400_4782" result="shape"/>
</filter>
<filter id="filter4_i_400_4782" x="110.098" y="4.62952" width="154.698" height="95.2434" filterUnits="userSpaceOnUse" color-interpolation-filters="sRGB">
<feFlood flood-opacity="0" result="BackgroundImageFix"/>
<feBlend mode="normal" in="SourceGraphic" in2="BackgroundImageFix" result="shape"/>
<feColorMatrix in="SourceAlpha" type="matrix" values="0 0 0 0 0 0 0 0 0 0 0 0 0 0 0 0 0 0 127 0" result="hardAlpha"/>
<feOffset dy="3.45459"/>
<feGaussianBlur stdDeviation="5.18188"/>
<feComposite in2="hardAlpha" operator="arithmetic" k2="-1" k3="1"/>
<feColorMatrix type="matrix" values="0 0 0 0 0.14902 0 0 0 0 0.776471 0 0 0 0 0.854902 0 0 0 0.5 0"/>
<feBlend mode="normal" in2="shape" result="effect1_innerShadow_400_4782"/>
</filter>
</defs>
</svg>
