<svg width="1662" height="759" viewBox="0 0 1662 759" fill="none" xmlns="http://www.w3.org/2000/svg">
<g filter="url(#filter0_i_370_4434)">
<ellipse cx="831" cy="335.5" rx="831" ry="335.5" fill="#0C0B0B"/>
</g>
<g filter="url(#filter1_f_370_4434)" style="mix-blend-mode:plus-lighter">
<ellipse cx="829.892" cy="411" rx="585.892" ry="308" fill="url(#paint0_radial_370_4434)"/>
</g>
<path d="M829.5 115C1021.74 115 1195.73 146.438 1321.63 197.23C1384.58 222.628 1435.45 252.844 1470.58 286.346C1505.7 319.845 1525 356.562 1525 395C1525 433.438 1505.7 470.155 1470.58 503.654C1435.45 537.156 1384.58 567.372 1321.63 592.77C1195.73 643.562 1021.74 675 829.5 675C637.262 675 463.27 643.562 337.374 592.77C274.424 567.372 223.547 537.156 188.425 503.654C153.305 470.155 134 433.438 134 395C134 356.562 153.305 319.845 188.425 286.346C223.547 252.844 274.424 222.628 337.374 197.23C463.27 146.438 637.262 115 829.5 115Z" fill="#0C0B0B" stroke="url(#paint1_linear_370_4434)" stroke-width="2"/>
<defs>
<filter id="filter0_i_370_4434" x="0" y="0" width="1682" height="691" filterUnits="userSpaceOnUse" color-interpolation-filters="sRGB">
<feFlood flood-opacity="0" result="BackgroundImageFix"/>
<feBlend mode="normal" in="SourceGraphic" in2="BackgroundImageFix" result="shape"/>
<feColorMatrix in="SourceAlpha" type="matrix" values="0 0 0 0 0 0 0 0 0 0 0 0 0 0 0 0 0 0 127 0" result="hardAlpha"/>
<feOffset dx="20" dy="20"/>
<feGaussianBlur stdDeviation="30"/>
<feComposite in2="hardAlpha" operator="arithmetic" k2="-1" k3="1"/>
<feColorMatrix type="matrix" values="0 0 0 0 0.14902 0 0 0 0 0.776471 0 0 0 0 0.854902 0 0 0 0.5 0"/>
<feBlend mode="normal" in2="shape" result="effect1_innerShadow_370_4434"/>
</filter>
<filter id="filter1_f_370_4434" x="204.614" y="63.6138" width="1250.56" height="694.772" filterUnits="userSpaceOnUse" color-interpolation-filters="sRGB">
<feFlood flood-opacity="0" result="BackgroundImageFix"/>
<feBlend mode="normal" in="SourceGraphic" in2="BackgroundImageFix" result="shape"/>
<feGaussianBlur stdDeviation="19.6931" result="effect1_foregroundBlur_370_4434"/>
</filter>
<radialGradient id="paint0_radial_370_4434" cx="0" cy="0" r="1" gradientUnits="userSpaceOnUse" gradientTransform="translate(830.066 149.87) rotate(90.0176) scale(569.13 1082.63)">
<stop stop-color="#26C6DA"/>
<stop offset="0.460003" stop-color="#1C1B1B" stop-opacity="0"/>
</radialGradient>
<linearGradient id="paint1_linear_370_4434" x1="829.5" y1="114" x2="829.5" y2="676" gradientUnits="userSpaceOnUse">
<stop stop-color="#26C6DA"/>
<stop offset="0.166474" stop-color="#26C6DA" stop-opacity="0"/>
</linearGradient>
</defs>
</svg>
