<svg width="52" height="52" viewBox="0 0 52 52" fill="none" xmlns="http://www.w3.org/2000/svg">
<rect x="0.838926" y="0.838926" width="49.9832" height="49.9832" rx="24.9916" stroke="#979696" stroke-width="1.67785"/>
<path d="M26.1868 13.0593C24.4794 13.0117 22.7798 13.3069 21.1884 13.9274C19.5971 14.548 18.1463 15.4813 16.9218 16.6722C15.6974 17.8631 14.7241 19.2874 14.0596 20.8609C13.3951 22.4344 13.0528 24.1251 13.053 25.8332C13.053 26.1587 13.0656 26.4829 13.0907 26.8059C13.1247 27.2631 13.0229 27.7202 12.7982 28.1198C12.5734 28.5194 12.2357 28.8438 11.8273 29.0522L10.73 29.6121V32.222L13.9615 30.5748L15.0085 30.0412L16.0404 29.5165L34.5513 20.0836L36.6314 19.0241L40.9313 16.8332V14.2233L36.6692 16.3978L33.0324 18.2514L15.4716 27.196C15.4112 26.743 15.3818 26.2864 15.3835 25.8294C15.3859 24.007 15.8644 22.2168 16.7715 20.6362C17.6786 19.0556 18.983 17.7394 20.5553 16.818C22.1276 15.8965 23.9133 15.4018 25.7356 15.3829C27.558 15.3639 29.3536 15.8214 30.9447 16.7099L33.0261 15.6491L33.3369 15.4905C31.2531 13.9779 28.7607 13.1304 26.1868 13.0593ZM40.9313 19.4444L17.0911 31.5828L15.011 32.6449L10.73 34.8282V37.4355L14.9808 35.2686L18.6176 33.415L36.1973 24.459C36.2561 24.9147 36.2855 25.3737 36.2854 25.8332C36.2842 27.6577 35.8059 29.4501 34.8979 31.0326C33.9899 32.6151 32.6838 33.9326 31.1092 34.8544C29.5347 35.7761 27.7465 36.27 25.922 36.287C24.0976 36.3041 22.3005 35.8436 20.709 34.9515L20.5819 35.0194L18.3256 36.1696C20.232 37.5535 22.4838 38.3834 24.8323 38.5677C27.1808 38.752 29.5345 38.2835 31.6334 37.2139C33.7323 36.1443 35.4947 34.5153 36.7258 32.5069C37.9569 30.4985 38.6089 28.1889 38.6096 25.8332C38.6096 25.5043 38.597 25.1772 38.5718 24.8517C38.5377 24.3946 38.6393 23.9376 38.8638 23.538C39.0884 23.1384 39.4259 22.814 39.834 22.6054L40.9313 22.0454V19.4444Z" fill="white"/>
</svg>
