<svg width="20" height="20" viewBox="0 0 20 20" fill="none" xmlns="http://www.w3.org/2000/svg">
<g clip-path="url(#clip0_238_4046)">
<path d="M10.2358 1.54259C9.10515 1.51107 7.97963 1.70656 6.92581 2.1175C5.87198 2.52845 4.91124 3.14651 4.10038 3.93514C3.28953 4.72377 2.64502 5.66697 2.20496 6.70898C1.76491 7.75098 1.53823 8.87064 1.53833 10.0018C1.53833 10.2173 1.54667 10.432 1.56333 10.6459C1.58584 10.9487 1.51845 11.2514 1.36961 11.516C1.22077 11.7806 0.997101 11.9954 0.726667 12.1334L0 12.5043V14.2326L2.14 13.1418L2.83333 12.7884L3.51667 12.4409L15.775 6.19426L17.1525 5.49259L20 4.04176V2.31343L17.1775 3.75343L14.7692 4.98093L3.14 10.9043C3.10004 10.6043 3.08055 10.3019 3.08167 9.99926C3.08327 8.79242 3.40012 7.60693 4.00084 6.56022C4.60156 5.51351 5.4653 4.64189 6.50652 4.03169C7.54774 3.42149 8.7303 3.09389 9.93708 3.08133C11.1439 3.06878 12.333 3.3717 13.3867 3.96009L14.765 3.25759L14.9708 3.15259C13.5909 2.15091 11.9404 1.58971 10.2358 1.54259ZM20 5.77093L4.2125 13.8093L2.835 14.5126L0 15.9584V17.6851L2.815 16.2501L5.22333 15.0226L16.865 9.09176C16.904 9.39353 16.9235 9.69749 16.9233 10.0018C16.9226 11.21 16.6058 12.397 16.0045 13.4449C15.4032 14.4929 14.5383 15.3654 13.4956 15.9758C12.4529 16.5862 11.2687 16.9132 10.0605 16.9245C8.85235 16.9358 7.66225 16.6309 6.60833 16.0401L6.52417 16.0851L5.03 16.8468C6.29244 17.7632 7.78365 18.3128 9.33887 18.4348C10.8941 18.5569 12.4528 18.2466 13.8427 17.5383C15.2326 16.83 16.3997 15.7513 17.215 14.4213C18.0303 13.0913 18.462 11.5618 18.4625 10.0018C18.4625 9.78398 18.4542 9.56732 18.4375 9.35176C18.4149 9.04907 18.4822 8.74645 18.6309 8.48184C18.7796 8.21722 19.0031 8.00239 19.2733 7.86426L20 7.49343V5.77093Z" fill="white"/>
</g>
<defs>
<clipPath id="clip0_238_4046">
<rect width="20" height="20" fill="white"/>
</clipPath>
</defs>
</svg>
