<svg width="47" height="47" viewBox="0 0 47 47" fill="none" xmlns="http://www.w3.org/2000/svg">
<path fill-rule="evenodd" clip-rule="evenodd" d="M35.5131 23.0751C35.5131 23.8847 34.8561 24.5418 34.0465 24.5418C33.2369 24.5418 32.5799 23.8847 32.5799 23.0751C32.5799 22.2656 33.2369 21.6085 34.0465 21.6085C34.8561 21.6085 35.5131 22.2656 35.5131 23.0751ZM30.2274 23.1925C30.2274 25.146 31.8192 26.7358 33.7728 26.7358H42.4943C42.5764 25.7033 42.6312 24.6298 42.6312 23.4662C42.6312 22.0935 42.5627 20.8361 42.4474 19.6452H33.7728C31.8192 19.6452 30.2274 21.237 30.2274 23.1925Z" fill="white"/>
<path fill-rule="evenodd" clip-rule="evenodd" d="M22.7852 16.8975H14.8458C14.0362 16.8975 13.3792 16.2405 13.3792 15.4309C13.3792 14.6213 14.0362 13.9643 14.8458 13.9643H22.7852C23.5947 13.9643 24.2518 14.6213 24.2518 15.4309C24.2518 16.2405 23.5947 16.8975 22.7852 16.8975ZM33.7731 29.6689C30.2004 29.6689 27.2946 26.763 27.2946 23.1923C27.2946 19.6196 30.2004 16.7118 33.7731 16.7118H42.0058C40.2889 8.78416 34.8271 5.79028 23.4676 5.79028C9.31762 5.79028 4.30176 10.417 4.30176 23.4661C4.30176 36.5171 9.31762 41.1419 23.4676 41.1419C35.0872 41.1419 40.5392 38.0131 42.1192 29.6689H33.7731Z" fill="white"/>
</svg>
